<svg width="20" height="18" viewBox="0 0 20 18" fill="none" xmlns="http://www.w3.org/2000/svg">
<path fill-rule="evenodd" clip-rule="evenodd" d="M15.168 4.51739V4.51739C14.826 4.51739 14.5162 4.32031 14.3705 4.01231C14.1074 3.45498 13.7728 2.74273 13.5748 2.35498C13.2824 1.77839 12.8085 1.44289 12.1521 1.43831C12.1411 1.43739 7.85846 1.43739 7.84746 1.43831C7.19113 1.44289 6.71813 1.77839 6.4248 2.35498C6.22771 2.74273 5.89313 3.45498 5.63005 4.01231C5.4843 4.32031 5.17355 4.51739 4.83255 4.51739V4.51739C3.00288 4.51739 1.52063 5.99964 1.52063 7.82839V13.2697C1.52063 15.0976 3.00288 16.5807 4.83255 16.5807H15.168C16.9967 16.5807 18.479 15.0976 18.479 13.2697V7.82839C18.479 5.99964 16.9967 4.51739 15.168 4.51739Z" stroke="white" stroke-width="1.5" stroke-linecap="round" stroke-linejoin="round"/>
<path fill-rule="evenodd" clip-rule="evenodd" d="M7.08627 10.2233C7.08536 11.8302 8.39711 13.1447 10.0013 13.1438C11.6027 13.142 12.9108 11.833 12.9135 10.2297C12.9163 8.62004 11.6091 7.30829 10.0031 7.30646C8.38794 7.30463 7.07344 8.63838 7.08627 10.2233Z" stroke="white" stroke-width="1.5" stroke-linecap="round" stroke-linejoin="round"/>
<path d="M14.4939 8.07883C14.4054 8.06974 14.3179 8.04663 14.2199 8.0072C14.1109 7.95879 14.0166 7.8972 13.9254 7.80454C13.7615 7.63023 13.6666 7.40227 13.6666 7.16711C13.6666 7.0422 13.6922 6.91839 13.742 6.80624C13.792 6.69262 13.8512 6.59677 13.9583 6.49251C14.0397 6.42159 14.1231 6.36452 14.2372 6.31429C14.5753 6.18029 14.9776 6.26036 15.2289 6.51163C15.3043 6.58585 15.3677 6.67543 15.4029 6.75097L15.4238 6.80453C15.4744 6.91839 15.5 7.0422 15.5 7.16711C15.5 7.40703 15.4063 7.62892 15.2324 7.81362C15.0821 7.96491 14.8848 8.05794 14.6742 8.07884L14.5833 8.08333L14.4939 8.07883Z" fill="white"/>
</svg>
