<svg width="20" height="20" viewBox="0 0 20 20" fill="none" xmlns="http://www.w3.org/2000/svg">
<path d="M10 18.3333C5.39765 18.3333 1.66669 14.6023 1.66669 9.99996C1.66669 5.39759 5.39765 1.66663 10 1.66663C14.6024 1.66663 18.3334 5.39759 18.3334 9.99996C18.3283 14.6002 14.6003 18.3282 10 18.3333ZM10 3.33329C6.31812 3.33329 3.33335 6.31806 3.33335 9.99996C3.33335 13.6819 6.31812 16.6666 10 16.6666C13.6819 16.6666 16.6667 13.6819 16.6667 9.99996C16.6626 6.31977 13.6802 3.33743 10 3.33329ZM14.1667 10.8333H9.16669V5.83329H10.8334V9.16663H14.1667V10.8333Z" fill="#A6E850"/>
</svg>
