<svg width="20" height="24" viewBox="0 0 20 24" fill="none" xmlns="http://www.w3.org/2000/svg">
<path d="M3.75016 22.1493H16.2502C16.563 22.1493 16.8168 21.8955 16.8168 21.5827V4.08268C16.8168 3.76984 16.563 3.51602 16.2502 3.51602H3.75016C3.43732 3.51602 3.1835 3.76984 3.1835 4.08268V21.5827C3.1835 21.8955 3.43732 22.1493 3.75016 22.1493ZM15.6835 4.64935V21.016H4.31683V4.64935H15.6835Z" fill="#A6E850" stroke="#A6E850" stroke-width="0.3"/>
<path d="M14.0168 4.08333C14.0168 4.39618 14.2706 4.65 14.5835 4.65C14.8963 4.65 15.1501 4.39618 15.1501 4.08333V2.41667C15.1501 2.10382 14.8963 1.85 14.5835 1.85H11.2502C10.9373 1.85 10.6835 2.10382 10.6835 2.41667V4.08333C10.6835 4.39618 10.9373 4.65 11.2502 4.65C11.563 4.65 11.8168 4.39618 11.8168 4.08333V2.98333H14.0168V4.08333Z" fill="#A6E850" stroke="#A6E850" stroke-width="0.3"/>
<path d="M2.91667 4.64935H17.0833C17.3962 4.64935 17.65 4.39553 17.65 4.08268C17.65 3.76984 17.3962 3.51602 17.0833 3.51602H2.91667C2.60382 3.51602 2.35 3.76984 2.35 4.08268C2.35 4.39553 2.60382 4.64935 2.91667 4.64935Z" fill="#A6E850" stroke="#A6E850" stroke-width="0.3"/>
<path d="M2.91667 22.1493H17.0833C17.3962 22.1493 17.65 21.8955 17.65 21.5827C17.65 21.2698 17.3962 21.016 17.0833 21.016H2.91667C2.60382 21.016 2.35 21.2698 2.35 21.5827C2.35 21.8955 2.60382 22.1493 2.91667 22.1493Z" fill="#A6E850" stroke="#A6E850" stroke-width="0.3"/>
<path d="M2.91667 8.81732H17.0833C17.3962 8.81732 17.65 8.56349 17.65 8.25065C17.65 7.93781 17.3962 7.68398 17.0833 7.68398H2.91667C2.60382 7.68398 2.35 7.93781 2.35 8.25065C2.35 8.56349 2.60382 8.81732 2.91667 8.81732Z" fill="#A6E850" stroke="#A6E850" stroke-width="0.3"/>
<path d="M2.91667 17.9833H17.0833C17.3962 17.9833 17.65 17.7295 17.65 17.4167C17.65 17.1038 17.3962 16.85 17.0833 16.85H2.91667C2.60382 16.85 2.35 17.1038 2.35 17.4167C2.35 17.7295 2.60382 17.9833 2.91667 17.9833Z" fill="#A6E850" stroke="#A6E850" stroke-width="0.3"/>
<path d="M9.55469 9.98196C9.37222 10.2135 8.82544 10.9209 8.32358 11.7135C8.07274 12.1097 7.8312 12.5302 7.65189 12.9251C7.47447 13.316 7.35 13.6986 7.35 14.014C7.35 14.7327 7.70202 15.3118 8.20656 15.7071L10.3267 10.0748L10.4445 9.982C10.4445 9.98197 10.4445 9.98194 10.4444 9.98192C10.3327 9.84002 10.1617 9.7748 9.99958 9.7748C9.83744 9.7748 9.66647 9.84004 9.55469 9.98196ZM9.55469 9.98196L9.6725 10.0748L9.55465 9.982C9.55466 9.98199 9.55468 9.98198 9.55469 9.98196ZM8.48333 14.014C8.48333 13.9113 8.52811 13.7458 8.62253 13.5242C8.71479 13.3076 8.84703 13.0541 9.00514 12.7818C9.28849 12.2938 9.65004 11.7538 10 11.2724C10.3499 11.7538 10.7115 12.294 10.9949 12.7821C11.153 13.0545 11.2852 13.308 11.3775 13.5245C11.4719 13.7461 11.5167 13.9115 11.5167 14.014C11.5167 14.3624 11.3334 14.6507 11.0463 14.8575C10.7574 15.0656 10.3719 15.1832 10 15.1832C9.62809 15.1832 9.24264 15.0656 8.9537 14.8575C8.66662 14.6507 8.48333 14.3624 8.48333 14.014Z" fill="#A6E850" stroke="#A6E850" stroke-width="0.3"/>
</svg>
