<svg width="20" height="20" viewBox="0 0 20 20" fill="none" xmlns="http://www.w3.org/2000/svg">
<path d="M16.6667 0C14.8287 0 13.3334 1.49535 13.3334 3.33332C13.3334 4.92762 15.6954 8.15438 16.2489 8.88879C16.2487 9.12602 16.2489 9.35894 16.2431 9.57273C16.237 9.80262 16.4185 9.9943 16.6488 10.0004C16.6525 10.0004 16.6561 10.0004 16.6602 10.0004C16.8848 10.0004 17.0704 9.82094 17.0765 9.59473C17.0822 9.37535 17.082 9.1359 17.0822 8.89191C17.632 8.16254 20 4.92949 20 3.33332C20 1.49535 18.5047 0 16.6667 0ZM16.6667 4.16668C16.2073 4.16668 15.8334 3.79273 15.8334 3.33336C15.8334 2.87398 16.2073 2.50004 16.6667 2.50004C17.1261 2.50004 17.5 2.87395 17.5 3.33332C17.5 3.79273 17.1261 4.16668 16.6667 4.16668Z" fill="#A6E850"/>
<path d="M12.7538 12.0088C12.0661 12.399 11.6841 13.0765 11.4562 13.5518C11.3565 13.7593 11.4439 14.0083 11.6515 14.1076C11.7097 14.1357 11.7711 14.1487 11.8313 14.1487C11.9868 14.1487 12.1357 14.0616 12.2073 13.9123C12.4966 13.3088 12.792 12.9455 13.1655 12.7331C13.3653 12.6196 13.4357 12.3652 13.3218 12.165C13.2087 11.9649 12.9552 11.8945 12.7538 12.0088Z" fill="#A6E850"/>
<path d="M8.96182 18.058C8.54432 18.3888 8.06991 18.6379 7.51081 18.8197C7.2919 18.8909 7.17226 19.1261 7.24347 19.345C7.30085 19.5208 7.46401 19.6327 7.63979 19.6327C7.68253 19.6327 7.72604 19.6262 7.76878 19.6124C8.41452 19.4024 8.98987 19.0993 9.4794 18.7115C9.65967 18.5682 9.69018 18.3062 9.54737 18.1259C9.40331 17.9461 9.14167 17.914 8.96182 18.058Z" fill="#A6E850"/>
<path d="M11.3114 15.0167C11.0957 14.9329 10.8556 15.0399 10.7722 15.2548C10.5855 15.7373 10.3519 16.3001 10.037 16.8156C9.91692 17.0122 9.97919 17.2685 10.1753 17.3886C10.2433 17.4301 10.3181 17.4496 10.3922 17.4496C10.5326 17.4496 10.6697 17.3788 10.7482 17.2502C11.0974 16.6781 11.3492 16.0727 11.5494 15.5559C11.6324 15.3414 11.5258 15.1001 11.3114 15.0167Z" fill="#A6E850"/>
<path d="M16.5119 10.9769C16.3227 10.8487 16.0627 10.898 15.9332 11.0884C15.7961 11.291 15.5154 11.5697 14.6661 11.6458C14.437 11.6666 14.2678 11.8688 14.2885 12.0983C14.3081 12.3148 14.4899 12.4775 14.7032 12.4775C14.7158 12.4775 14.7284 12.4771 14.741 12.4759C15.6431 12.3949 16.2588 12.0938 16.6234 11.5555C16.7524 11.3651 16.7023 11.1059 16.5119 10.9769Z" fill="#A6E850"/>
<path d="M5.9873 19.172C7.30203 17.77 10 14.5445 10 11.6666C10 8.86307 7.80356 6.66663 5 6.66663C2.19645 6.66663 0 8.86307 0 11.6666C0 15.3625 4.45578 19.6411 4.7048 19.8772C4.7048 19.8772 4.70582 19.8782 4.70629 19.8787C4.70766 19.8799 4.71289 19.885 4.71398 19.886C4.73121 19.9024 4.7527 19.91 4.7718 19.9228C4.79543 19.9387 4.8168 19.9575 4.84355 19.9684C4.89375 19.9888 4.94664 19.9999 5 19.9999C5.30355 19.9999 5.59203 19.9894 5.86547 19.9686C6.09496 19.9511 6.26707 19.7513 6.24957 19.5218C6.23707 19.3576 6.13078 19.2295 5.9873 19.172ZM5 14.1666C3.62141 14.1666 2.5 13.0452 2.5 11.6666C2.5 10.288 3.62141 9.16663 5 9.16663C6.37859 9.16663 7.5 10.288 7.5 11.6666C7.5 13.0452 6.37859 14.1666 5 14.1666Z" fill="#A6E850"/>
</svg>
