<svg width="21" height="25" viewBox="0 0 21 25" fill="none" xmlns="http://www.w3.org/2000/svg">
<path d="M17.75 24.5833H3.25001C1.91532 24.5833 0.833344 23.5013 0.833344 22.1666V2.83329C0.833344 1.4986 1.91532 0.416626 3.25001 0.416626H11.7083C11.7215 0.417197 11.7345 0.419638 11.747 0.423876C11.7588 0.427522 11.771 0.429951 11.7833 0.431126C11.8898 0.437957 11.995 0.458674 12.0962 0.492751L12.1301 0.503626C12.1574 0.512908 12.1841 0.524217 12.2098 0.537459C12.3414 0.595971 12.4614 0.677849 12.5638 0.779126L19.8138 8.02913C19.9151 8.13158 19.997 8.25153 20.0555 8.38317C20.0676 8.40975 20.0761 8.43754 20.0857 8.46533L20.0966 8.49675C20.1303 8.59751 20.1502 8.70239 20.1558 8.8085C20.1577 8.8196 20.1605 8.83051 20.1643 8.84113C20.1664 8.85227 20.1672 8.86363 20.1668 8.87496V22.1666C20.1668 23.5013 19.0847 24.5833 17.75 24.5833ZM3.25001 2.83329V22.1666H17.75V10.0833H11.7083C11.041 10.0833 10.5 9.5423 10.5 8.87496V2.83329H3.25001ZM12.9167 4.54188V7.66663H16.0414L12.9167 4.54188Z" fill="#A6E850"/>
</svg>
