<svg width="16" height="18" viewBox="0 0 16 18" fill="none" xmlns="http://www.w3.org/2000/svg">
<path fill-rule="evenodd" clip-rule="evenodd" d="M12.6022 5.1633V6.44108C14.0375 6.88909 15.0833 8.18841 15.0833 9.74029V13.8544C15.0833 15.7756 13.4905 17.3333 11.5268 17.3333H4.47396C2.50942 17.3333 0.916626 15.7756 0.916626 13.8544V9.74029C0.916626 8.18841 1.96325 6.88909 3.3977 6.44108V5.1633C3.40617 2.67895 5.46385 0.666626 7.98726 0.666626C10.5445 0.666626 12.6022 2.67895 12.6022 5.1633ZM8.0042 2.1158C9.72317 2.1158 11.1204 3.48219 11.1204 5.16327V6.26135H4.87957V5.14671C4.88804 3.47391 6.28523 2.1158 8.0042 2.1158ZM8.7409 12.7124C8.7409 13.1182 8.41065 13.4411 7.99573 13.4411C7.58927 13.4411 7.25903 13.1182 7.25903 12.7124V10.874C7.25903 10.4765 7.58927 10.1535 7.99573 10.1535C8.41065 10.1535 8.7409 10.4765 8.7409 10.874V12.7124Z" fill="white"/>
</svg>
