<svg width="21" height="25" viewBox="0 0 21 25" fill="none" xmlns="http://www.w3.org/2000/svg">
<path d="M10.5 24.5833C9.16532 24.5833 8.08334 23.5013 8.08334 22.1666H12.9167C12.9167 23.5013 11.8347 24.5833 10.5 24.5833ZM20.1667 20.9583H0.833344V18.5416L3.25001 17.3333V10.6875C3.25001 6.50421 4.96705 3.7915 8.08334 3.05079V0.416626H11.7083C10.9204 1.46055 10.496 2.73375 10.5 4.04163C10.5 4.34537 10.5226 4.6487 10.5677 4.94908H10.5C9.02567 4.85359 7.60364 5.51296 6.72397 6.69996C5.97184 7.88963 5.6028 9.28142 5.66668 10.6875V18.5416H15.3333V10.6875C15.3333 10.4325 15.3249 10.1872 15.308 9.96246C16.1072 10.1276 16.9315 10.1304 17.7319 9.97092C17.7452 10.2259 17.75 10.4688 17.75 10.6959V17.3333L20.1667 18.5416V20.9583ZM16.5417 7.66663C15.8116 7.66751 15.0984 7.44718 14.496 7.03467C13.0723 6.06145 12.5313 4.21998 13.2024 2.63139C13.8735 1.04279 15.5709 0.146904 17.2611 0.489171C18.9514 0.831438 20.1665 2.31709 20.1667 4.04163C20.1667 6.04366 18.5437 7.66663 16.5417 7.66663Z" fill="black"/>
</svg>
