<svg width="20" height="20" viewBox="0 0 20 20" fill="none" xmlns="http://www.w3.org/2000/svg">
<path d="M10 11.1719C10.3236 11.1719 10.5859 10.9095 10.5859 10.5859C10.5859 10.2623 10.3236 10 10 10C9.6764 10 9.41406 10.2623 9.41406 10.5859C9.41406 10.9095 9.6764 11.1719 10 11.1719Z" fill="#A6E850"/>
<path d="M17.527 9.07812H17.8188L17.7741 8.78981C17.1902 5.02425 13.927 2.13281 10 2.13281C6.07299 2.13281 2.80985 5.02425 2.22592 8.78981L2.18121 9.07812H2.47297H4.50492C5.85909 9.07812 7.15023 8.53491 8.04559 7.58076L8.04561 7.58073C9.10318 6.45342 10.8969 6.45374 11.9544 7.58079L11.9544 7.5808C12.8498 8.53491 14.1409 9.07812 15.495 9.07812H17.527ZM2.81573 12.5445L2.58288 12.6358L2.67435 12.8686C3.56634 15.1389 5.48422 16.8973 7.85524 17.57L8.06212 17.6287L8.15108 17.4329C8.26662 17.1786 8.35404 16.9116 8.41077 16.6363H8.41758L8.4496 16.4235C8.79428 14.1325 7.01478 12.0938 4.72656 12.0938C4.01158 12.0938 3.4896 12.2801 2.81573 12.5445ZM11.8494 17.4328L11.9384 17.6285L12.1452 17.5698C14.516 16.8971 16.4337 15.1388 17.3256 12.8687L17.4171 12.6359L17.1842 12.5445C16.7611 12.3785 16.4356 12.2688 16.1699 12.2012L16.1083 12.4435L16.1699 12.2012C13.611 11.5509 11.149 13.7551 11.5504 16.4235L11.5824 16.6363H11.5892C11.6449 16.9063 11.7314 17.1733 11.8494 17.4328ZM0.25 10C0.25 4.63217 4.6319 0.25 10 0.25C15.3678 0.25 19.75 4.6319 19.75 10C19.75 15.3678 15.3682 19.75 10 19.75C4.63217 19.75 0.25 15.3682 0.25 10ZM7.99219 10.5859C7.99219 11.6933 8.89272 12.5938 10 12.5938C11.1074 12.5938 12.0078 11.6933 12.0078 10.5859C12.0078 9.47857 11.1074 8.57812 10 8.57812C8.89272 8.57812 7.99219 9.47856 7.99219 10.5859Z" fill="#A6E850" stroke="#131E25" stroke-width="0.5"/>
</svg>
