<svg width="268" height="170" viewBox="0 0 268 170" fill="none" xmlns="http://www.w3.org/2000/svg">
<path d="M24.3059 170.464C20.0242 170.464 16.4512 169.723 13.5869 168.245C10.7226 166.766 8.40853 164.802 6.64391 162.353C4.87929 159.903 3.563 157.153 2.69503 154.104C1.82706 151.053 1.2195 147.957 0.872314 144.814H21.8318V153.04C21.8318 154.974 25.9981 154.983 25.9981 153.04V143.22C25.9981 143.22 25.4494 142.304 24.4358 142.111C24.4358 142.111 21.702 141.209 19.7925 140.655C17.7675 140.101 15.6987 139.384 13.5869 138.506C11.4751 137.628 9.5799 136.334 7.90208 134.623C6.22426 132.914 4.84987 130.718 3.77962 128.038C2.70938 125.358 2.17425 121.938 2.17425 117.779C2.17425 109.922 4.12682 103.799 8.03268 99.4087C11.9378 95.0176 17.3622 92.8232 24.3059 92.8232C28.1824 92.8232 31.4656 93.5852 34.1563 95.1104C36.847 96.6356 39.0455 98.5997 40.752 101.003C42.4593 103.406 43.7175 106.156 44.5281 109.252C45.338 112.348 45.8293 115.422 46.0029 118.472H25.9981C25.8826 116.993 26.0487 111.462 25.9981 110.531C25.8683 108.146 21.7269 108.46 21.8318 110.463V119.65C21.8318 119.65 23.5965 120.297 24.4358 120.621C25.275 120.945 26.3596 121.245 27.6903 121.522C29.6579 121.984 31.7984 122.7 34.1132 123.671C36.4273 124.641 38.5972 126.028 40.6222 127.831C42.6472 129.633 44.3394 131.966 45.6995 134.832C47.0588 137.697 47.7388 141.209 47.7388 145.369C47.7388 153.595 45.6708 159.834 41.5332 164.086C37.3964 168.337 31.6535 170.464 24.3059 170.464Z" fill="white"/>
<path fill-rule="evenodd" clip-rule="evenodd" d="M105.626 93.4709H128.447V122.055H133.39V93.4709H154.263V169.948H133.39V139.211H128.447V169.948H105.626V93.4709ZM127.289 94.6212H106.783V168.798H127.289V139.211L128.447 138.061H133.39L134.548 139.211V168.798H153.103V94.6212H134.548V122.055L133.39 123.206H128.447L127.289 122.055V94.6212Z" fill="black"/>
<path d="M105.626 93.4709H128.447V122.055H133.39V93.4709H154.263V169.948H133.39V139.211H128.447V169.948H105.626V93.4709Z" fill="white"/>
<path fill-rule="evenodd" clip-rule="evenodd" d="M190.365 156.493H182.684L180.925 170.126H159.02L172.028 93.2279H200.372L214.344 170.126H192.124L190.365 156.493ZM193.143 168.976H212.961L199.403 94.3782H173.004L160.384 168.976H179.906L181.666 155.343H191.383L193.143 168.976ZM190.006 143.677L187.66 108.239L185.351 108.238L182.974 143.676L184.129 144.903H188.852L190.006 143.677ZM188.852 143.752L186.506 108.315L184.129 143.752H188.852Z" fill="black"/>
<path d="M190.365 156.493H182.684L180.925 170.126H159.02L172.028 93.2279H200.372L214.344 170.126H192.124L190.365 156.493ZM188.852 143.752L186.506 108.315L184.129 143.752H188.852Z" fill="white"/>
<path fill-rule="evenodd" clip-rule="evenodd" d="M245.514 121.974L246.971 92.9045H267.826V170.328H244.569L238.531 140.989V170.427H219.17V93.0039H240.513L241.649 93.069L245.514 121.974Z" fill="white"/>
<path fill-rule="evenodd" clip-rule="evenodd" d="M93.1138 77.5436H89.0378V77.5074H85.2885V64.0351H89.0378V56.0183H102.099L99.371 49.5106H89.0212V42.8889H74.6645L68.9988 34.7095H89.0212V29.5779H132.605V77.7933H122.086C119.613 83.5004 114.078 87.4787 107.653 87.4787C101.134 87.4787 95.5321 83.3838 93.1138 77.5436ZM107.305 68.0484C110.179 68.022 112.512 70.3354 112.512 73.2125C112.512 76.0891 110.179 78.446 107.305 78.473C104.432 78.4994 102.099 76.186 102.099 73.3088C102.099 70.4323 104.432 68.0754 107.305 68.0484Z" fill="#A6E850"/>
<path fill-rule="evenodd" clip-rule="evenodd" d="M136.148 14.858H154.982L158.912 23.2674H140.635L136.148 14.858Z" fill="#A6E850"/>
<path fill-rule="evenodd" clip-rule="evenodd" d="M146.132 10.5425L141.905 0.866699H72.0917L77.1354 10.5425H146.132Z" fill="#A6E850"/>
<path fill-rule="evenodd" clip-rule="evenodd" d="M126.987 23.6839L122.635 15.1819H93.1726L98.684 23.6839H126.987Z" fill="#A6E850"/>
<path fill-rule="evenodd" clip-rule="evenodd" d="M144.855 76.1555H136.148V33.703H161.949L174.989 51.7156V64.0266H179.228V76.1555H171.98C170.646 82.3804 165.077 87.0556 158.417 87.0556C151.758 87.0556 146.189 82.3804 144.855 76.1555ZM158.386 68.0811C161.28 68.0811 163.629 70.4086 163.629 73.2753C163.629 76.142 161.28 78.4695 158.386 78.4695C155.492 78.4695 153.143 76.142 153.143 73.2753C153.143 70.4086 155.492 68.0811 158.386 68.0811ZM143.977 41.4861V52.4818H166.491L159.612 41.4861H143.977Z" fill="#A6E850"/>
<path fill-rule="evenodd" clip-rule="evenodd" d="M100.299 137.972V150.161C100.299 161.707 90.8657 171.08 79.2465 171.08H73.3659C61.7467 171.08 52.3131 161.707 52.3131 150.161V113.177C52.3131 101.631 61.7467 92.2573 73.3659 92.2573H79.2465C90.8657 92.2573 100.299 101.631 100.299 113.177V125.365H78.6581V110.955C78.6581 109.823 77.7333 108.904 76.5942 108.904H76.0182C74.8791 108.904 73.9543 109.823 73.9543 110.955V152.383C73.9543 153.515 74.8791 154.433 76.0182 154.433H76.5942C77.7333 154.433 78.6581 153.515 78.6581 152.383V137.972H100.299Z" fill="white"/>
</svg>
