<svg width="22" height="20" viewBox="0 0 22 20" fill="none" xmlns="http://www.w3.org/2000/svg">
<path d="M11.6446 0C14.1292 0.150285 16.4591 1.16769 18.3188 2.91429L15.4427 5.94517C14.3603 4.9956 13.0461 4.42176 11.6446 4.28682V0Z" fill="#A6E850"/>
<path d="M16.3545 6.90538L19.2306 3.87454C20.8895 5.83378 21.8561 8.28924 21.9996 10.9081H17.9315C17.8026 9.43098 17.2569 8.0459 16.3545 6.90538Z" fill="#A6E850"/>
<path d="M4.06876 10.9081H0.000602722C0.144118 8.28924 1.11074 5.83378 2.76964 3.87454L5.64575 6.90538C4.74337 8.04586 4.19766 9.43098 4.06876 10.9081Z" fill="#A6E850"/>
<path d="M4.06943 12.2665C4.1598 13.3126 4.44309 14.1851 4.77816 14.885C4.4513 15.4162 4.17879 15.8651 3.99875 16.1633C3.50847 16.9752 3.61701 18.0175 4.26275 18.698C4.41954 18.8632 4.59863 18.9964 4.79272 19.0948L4.12289 19.8007C3.99681 19.9335 3.83156 20 3.66634 20C3.50108 20 3.33587 19.9335 3.20984 19.8007C1.27951 17.7667 0.153948 15.1126 -9.53674e-05 12.2665H4.06943Z" fill="#A6E850"/>
<path d="M17.9304 12.2665H22C21.846 15.1126 20.7204 17.7667 18.7901 19.8007C18.664 19.9336 18.4988 20 18.3336 20C18.1684 20 18.0031 19.9335 17.8771 19.8007L15.9215 17.7398C15.6694 17.4741 15.6694 17.0433 15.9215 16.7776C16.4318 16.2398 17.7173 14.7341 17.9304 12.2665Z" fill="#A6E850"/>
<path d="M3.68126 2.91429C5.54099 1.16764 7.87093 0.150285 10.3555 0V4.28682C8.95409 4.42176 7.6398 4.9956 6.55742 5.94517L3.68126 2.91429Z" fill="#A6E850"/>
<path d="M9.56782 10.0895C10.3575 9.25738 11.6423 9.25738 12.4319 10.0895C13.2216 10.9216 13.2216 12.2756 12.4319 13.1077C11.4344 14.1589 6.53186 17.4576 5.9761 17.8303C5.72126 18.0012 5.38795 17.9626 5.17431 17.7375C4.96071 17.5124 4.9241 17.1612 5.08631 16.8926C5.43998 16.307 8.57026 11.1407 9.56782 10.0895Z" fill="#A6E850"/>
</svg>
