<svg width="22" height="20" viewBox="0 0 22 20" fill="none" xmlns="http://www.w3.org/2000/svg">
<path d="M10.3554 0C7.87082 0.150285 5.54088 1.16769 3.68115 2.91429L6.55731 5.94517C7.63969 4.9956 8.95393 4.42176 10.3554 4.28682V0Z" fill="#A6E850"/>
<path d="M5.64551 6.90538L2.7694 3.87454C1.11055 5.83378 0.143882 8.28924 0.000366211 10.9081H4.06852C4.19742 9.43098 4.74313 8.0459 5.64551 6.90538Z" fill="#A6E850"/>
<path d="M17.9312 10.9081H21.9994C21.8559 8.28924 20.8893 5.83378 19.2304 3.87454L16.3542 6.90538C17.2566 8.04586 17.8023 9.43098 17.9312 10.9081Z" fill="#A6E850"/>
<path d="M17.9306 12.2665C17.8402 13.3126 17.5569 14.1851 17.2218 14.885C17.5487 15.4162 17.8212 15.8651 18.0013 16.1633C18.4915 16.9752 18.383 18.0175 17.7373 18.698C17.5805 18.8632 17.4014 18.9964 17.2073 19.0948L17.8771 19.8007C18.0032 19.9335 18.1684 20 18.3337 20C18.4989 20 18.6641 19.9335 18.7902 19.8007C20.7205 17.7667 21.8461 15.1126 22.0001 12.2665H17.9306Z" fill="#A6E850"/>
<path d="M4.06957 12.2665H0C0.154043 15.1126 1.27961 17.7667 3.20989 19.8007C3.33596 19.9336 3.50118 20 3.66639 20C3.83161 20 3.99687 19.9335 4.12294 19.8007L6.07853 17.7398C6.33063 17.4741 6.33063 17.0433 6.07853 16.7776C5.56819 16.2398 4.28269 14.7341 4.06957 12.2665Z" fill="#A6E850"/>
<path d="M18.3187 2.91429C16.459 1.16764 14.1291 0.150285 11.6445 0V4.28682C13.0459 4.42176 14.3602 4.9956 15.4426 5.94517L18.3187 2.91429Z" fill="#A6E850"/>
<path d="M12.4322 10.0895C11.6425 9.25738 10.3577 9.25738 9.56806 10.0895C8.77842 10.9216 8.77842 12.2756 9.56806 13.1077C10.5656 14.1589 15.4681 17.4576 16.0239 17.8303C16.2787 18.0012 16.6121 17.9626 16.8257 17.7375C17.0393 17.5124 17.0759 17.1612 16.9137 16.8926C16.56 16.307 13.4297 11.1407 12.4322 10.0895Z" fill="#A6E850"/>
</svg>
