<svg width="18" height="20" viewBox="0 0 18 20" fill="none" xmlns="http://www.w3.org/2000/svg">
<path d="M13.0637 2.35144L13.0636 2.35132C12.8464 1.96569 12.4944 1.68841 12.0724 1.57334L12.0724 1.57332C11.6524 1.45902 11.2126 1.51926 10.8372 1.74179L10.8372 1.7418L3.55075 6.06237H2.30595C1.40012 6.06237 0.668359 6.81164 0.668359 7.72751V16.8183C0.668359 17.7341 1.40008 18.4834 2.30595 18.4834H14.9504C15.8562 18.4834 16.588 17.7342 16.588 16.8183V14.5761C17.0255 14.3738 17.3318 13.929 17.3318 13.4092V11.1365C17.3318 10.6168 17.0255 10.172 16.588 9.96969V7.72751C16.588 6.88353 15.9656 6.19002 15.1617 6.08372L13.0637 2.35144ZM11.3646 2.65456L11.3649 2.65438C11.4981 2.57499 11.6526 2.55408 11.8011 2.59447C11.905 2.62281 11.9974 2.67882 12.0707 2.75736L6.49724 6.06237H5.61724L11.3646 2.65456ZM13.3386 4.9781L13.9481 6.06237H11.5101L13.3386 4.9781ZM12.602 3.66761L12.8221 4.0591L9.44369 6.06237H8.56358L12.602 3.66761ZM15.5442 16.8183C15.5442 17.1556 15.275 17.4258 14.9504 17.4258H2.30595C1.98136 17.4258 1.71217 17.1556 1.71217 16.8183V7.72751C1.71217 7.39014 1.98136 7.11996 2.30595 7.11996H14.9504C15.275 7.11996 15.5442 7.39014 15.5442 7.72751V9.8502H13.4628C12.1469 9.8502 11.0814 10.9394 11.0814 12.2729C11.0814 13.6064 12.1469 14.6956 13.4628 14.6956H15.5442V16.8183ZM16.288 13.4092C16.288 13.538 16.1858 13.638 16.0661 13.638H13.4628C12.7278 13.638 12.1252 13.0283 12.1252 12.2729C12.1252 11.5175 12.7278 10.9078 13.4628 10.9078H16.0661C16.1858 10.9078 16.288 11.0078 16.288 11.1365V13.4092Z" fill="#A6E850" stroke="#A6E850" stroke-width="0.3"/>
<path d="M12.5691 12.2729C12.5691 11.7751 12.9675 11.3654 13.4629 11.3654C13.9584 11.3654 14.3567 11.7751 14.3567 12.2729H12.5691ZM12.5691 12.2729C12.5691 12.7708 12.9675 13.1805 13.4629 13.1805M12.5691 12.2729L13.4629 13.1805M13.4629 13.1805C13.9583 13.1805 14.3567 12.7708 14.3567 12.2729L13.4629 13.1805Z" fill="#A6E850" stroke="#A6E850" stroke-width="0.3"/>
</svg>
